<?xml version="1.0" encoding="utf-8"?>
<!-- Generator: Adobe Illustrator 25.4.1, SVG Export Plug-In . SVG Version: 6.00 Build 0)  -->
<svg version="1.1" id="Layer_1" xmlns="http://www.w3.org/2000/svg" xmlns:xlink="http://www.w3.org/1999/xlink" x="0px" y="0px"
	 width="756.7px" height="107px" viewBox="0 0 756.7 107" style="enable-background:new 0 0 756.7 107;" xml:space="preserve">
<g>
	<path d="M61.8,75.6c0,17-13.8,30.9-30.9,30.9S0,92.6,0,75.6c0-3.8,3-6.8,6.8-6.8s6.8,3,6.8,6.8c0,9.5,7.8,17.3,17.3,17.3
		s17.3-7.8,17.3-17.3c0-3.8,3-6.8,6.8-6.8S61.8,71.9,61.8,75.6z M55,0c-3.8,0-6.8,3-6.8,6.8v22.5c0,9.5-7.8,17.3-17.3,17.3
		s-17.3-7.8-17.3-17.3V6.8c0-3.8-3-6.8-6.8-6.8S0,3.1,0,6.8v22.5c0,17,13.8,30.9,30.9,30.9s30.9-13.8,30.9-30.9V6.8
		C61.8,3.1,58.7,0,55,0z M276.7,30c0-16.5-13.8-30-30.9-30h-24.1c-3.8,0-6.8,3-6.8,6.8s3,6.8,6.8,6.8h24.1c9.5,0,17.3,7.4,17.3,16.4
		c0,9-7.8,16.4-17.3,16.4h-24.1c-3.8,0-6.8,3-6.8,6.8s3,6.8,6.8,6.8h24.1c9.5,0,17.3,7.4,17.3,16.4s-7.8,16.4-17.3,16.4h-24.1
		c-3.8,0-6.8,3-6.8,6.8s3,6.8,6.8,6.8h24.1c17,0,30.9-13.5,30.9-30c0-9.3-4.4-17.7-11.3-23.2C272.3,47.7,276.7,39.4,276.7,30z
		 M133.4,30.9v44.7c0,17-13.8,30.9-30.9,30.9S71.7,92.6,71.7,75.6V30.9c0-17,13.8-30.9,30.9-30.9C119.6,0,133.4,13.9,133.4,30.9z
		 M119.8,30.9c0-9.5-7.8-17.3-17.3-17.3s-17.3,7.8-17.3,17.3v44.7c0,9.5,7.8,17.3,17.3,17.3s17.3-7.8,17.3-17.3V30.9z M205,30.9
		v44.7c0,17-13.8,30.9-30.9,30.9s-30.9-13.8-30.9-30.9V30.9c0-17,13.8-30.9,30.9-30.9S205,13.9,205,30.9z M191.4,30.9
		c0-9.5-7.8-17.3-17.3-17.3s-17.3,7.8-17.3,17.3v44.7c0,9.5,7.8,17.3,17.3,17.3s17.3-7.8,17.3-17.3V30.9z M317.5,13.6h24.1
		c3.8,0,6.8-3,6.8-6.8s-3-6.8-6.8-6.8h-24.1c-17,0-30.9,13.5-30.9,30c0,9.3,4.4,17.7,11.3,23.2c-6.9,5.5-11.3,13.9-11.3,23.2
		c0,16.5,13.8,30,30.9,30h24.1c3.8,0,6.8-3,6.8-6.8s-3-6.8-6.8-6.8h-24.1c-9.5,0-17.3-7.4-17.3-16.4s7.8-16.4,17.3-16.4h24.1
		c3.8,0,6.8-3,6.8-6.8s-3-6.8-6.8-6.8h-24.1c-9.5,0-17.3-7.4-17.3-16.4C300.2,21,307.9,13.6,317.5,13.6z M389.1,60.1h24.1
		c3.8,0,6.8-3,6.8-6.8s-3-6.8-6.8-6.8h-24.1c-9.5,0-17.3-7.4-17.3-16.4s7.8-16.4,17.3-16.4h24.1c3.8,0,6.8-3,6.8-6.8s-3-6.8-6.8-6.8
		h-24.1c-17,0-30.9,13.5-30.9,30c0,9.3,4.4,17.7,11.3,23.2c-6.9,5.5-11.3,13.9-11.3,23.2c0,16.5,13.8,30,30.9,30h24.1
		c3.8,0,6.8-3,6.8-6.8s-3-6.8-6.8-6.8h-24.1c-9.5,0-17.3-7.4-17.3-16.4S379.6,60.1,389.1,60.1z"/>
	<g>
		<path d="M490,1.2c8,0,13.3,4.4,14.2,11.5h-6.5c-0.7-3.8-3.7-5.8-7.6-5.8c-5,0-8.3,3.1-8.3,9c0,5.9,3.3,9.1,8.3,9.1
			c3.9,0,6.9-2,7.6-5.8h6.5c-0.8,7.1-6.1,11.5-14.2,11.5c-9.1,0-14.7-6.4-14.7-14.8C475.2,7.6,480.8,1.2,490,1.2z"/>
		<path d="M521.6,1.2c9.1,0,14.6,6.4,14.6,14.7c0,8.4-5.5,14.8-14.6,14.8c-9.1,0-14.6-6.4-14.6-14.8C506.9,7.6,512.5,1.2,521.6,1.2z
			 M521.6,25c5.4,0,8.1-3.5,8.1-9.1c0-5.5-2.7-9-8.1-9s-8.1,3.5-8.1,9C513.4,21.4,516.2,25,521.6,25z"/>
		<path d="M563.5,26.9V1.6h6.5v23H584v5.7H567C564.8,30.3,563.5,29.1,563.5,26.9z"/>
		<path d="M539.8,26.9V1.6h6.5v23h13.9v5.7h-16.9C541.1,30.3,539.8,29.1,539.8,26.9z"/>
		<path d="M587.2,1.6h20.4v5.7h-13.9v5.8h11.9v5.7h-11.9v5.8h13.9v5.7h-20.4V1.6z"/>
		<path d="M623.7,1.2c7.2,0,12.8,4.4,13.6,10.6h-6.5c-0.7-3.4-2.8-5-7.1-5c-5,0-7.9,2.7-7.9,9c0,6.3,2.3,9.1,7,9.1
			c3.9,0,6.3-2,6.3-5.8h-6.6v-4.9h15c2.2,0,3.5,1.2,3.5,3.5v12.5h-6.5v-9.9l1.2-4.5H634c0,9-3.6,14.8-11.5,14.8
			c-8.6,0-13.3-6-13.3-14.8C609.3,7.2,615.4,1.2,623.7,1.2z"/>
		<path d="M644.2,1.6h20.4v5.7h-13.9v5.8h11.9v5.7h-11.9v5.8h13.9v5.7h-20.4V1.6z"/>
		<path d="M489.9,39.4c9.1,0,14.6,6.4,14.6,14.7c0,8.4-5.5,14.8-14.6,14.8c-9.1,0-14.6-6.4-14.6-14.8
			C475.2,45.7,480.8,39.4,489.9,39.4z M489.9,63.1c5.4,0,8.1-3.5,8.1-9.1c0-5.5-2.7-9-8.1-9s-8.1,3.5-8.1,9
			C481.7,59.6,484.5,63.1,489.9,63.1z"/>
		<path d="M508.1,39.8h20.4v5.7h-13.9v8.2l13-0.8v5.8l-13,0.8v8.9h-6.5L508.1,39.8L508.1,39.8z"/>
		<path d="M557.3,39.4c8,0,13.3,4.4,14.2,11.5H565c-0.7-3.8-3.7-5.8-7.6-5.8c-5,0-8.3,3.1-8.3,9c0,5.9,3.3,9.1,8.3,9.1
			c3.9,0,6.9-2,7.6-5.8h6.5c-0.8,7.1-6.1,11.5-14.2,11.5c-9.1,0-14.7-6.4-14.7-14.8C542.6,45.7,548.2,39.4,557.3,39.4z"/>
		<path d="M575.1,39.8h11.1c6.8,0,12.8,1.6,12.8,8c0,4.7-3.8,6-7.3,6.4v1.6h4.2c2.2,0,3.5,1.2,3.5,3.5v9.2h-6.5V58.4h-11.2v10.1
			h-6.5L575.1,39.8L575.1,39.8z M586.2,52.7c3.9,0,6.3,0,6.3-3.6c0-3.6-2.4-3.6-6.3-3.6h-4.6v7.2H586.2z"/>
		<path d="M603.4,39.8h20.4v5.7h-13.9v5.8h11.9v5.7h-11.9v5.8h13.9v5.7h-20.4V39.8z"/>
		<path d="M647.1,59.2h-11.6l-2.6,9.2h-6.6l8.2-28.7H648l8.3,28.7h-6.6L647.1,59.2z M645.5,53.5l-3.4-12.2h-1.6l-3.4,12.2H645.5z"/>
		<path d="M678.3,45.5h-9.3v23h-6.5v-23H653v-5.7h25.2V45.5z"/>
		<path d="M694.5,45.5v17.3h6.5v5.7h-19.5v-5.7h6.5V45.5h-6.5v-5.7H701v5.7H694.5z"/>
		<path d="M710.5,39.8l7.6,27h1.6l7.6-27h6.6l-8.3,28.7h-13.4l-8.2-28.7H710.5z"/>
		<path d="M736.3,39.8h20.4v5.7h-13.9v5.8h11.9v5.7h-11.9v5.8h13.9v5.7h-20.4V39.8z"/>
		<path d="M488.2,83.6v17.3h6.5v5.7h-19.5v-5.7h6.5V83.6h-6.5v-5.7h19.5v5.7H488.2z"/>
		<path d="M498.5,77.9h12.8l8.7,27h1.6l-1.2-4.1v-23h6.5v28.7h-12.8l-8.7-27h-1.6l1.2,4.1v23h-6.5L498.5,77.9L498.5,77.9z"/>
		<path d="M531,77.9h12.8l8.7,27h1.6l-1.2-4.1v-23h6.5v28.7h-12.8l-8.7-27h-1.6l1.2,4.1v23H531V77.9z"/>
		<path d="M577.3,77.5c9.1,0,14.6,6.4,14.6,14.7c0,8.4-5.5,14.8-14.6,14.8c-9.1,0-14.6-6.4-14.6-14.8
			C562.7,83.9,568.2,77.5,577.3,77.5z M577.3,101.3c5.4,0,8.1-3.5,8.1-9.1c0-5.5-2.7-9-8.1-9s-8.1,3.5-8.1,9
			C569.2,97.8,571.9,101.3,577.3,101.3z"/>
		<path d="M599.4,77.9l7.6,27h1.6l7.6-27h6.6l-8.3,28.7h-13.4l-8.2-28.7H599.4z"/>
		<path d="M640,97.4h-11.6l-2.6,9.2h-6.6l8.2-28.7h13.4l8.3,28.7h-6.6L640,97.4z M638.4,91.7L635,79.6h-1.6l-3.4,12.2H638.4z"/>
		<path d="M671.2,83.6h-9.3v23h-6.5v-23H646v-5.7h25.2V83.6z"/>
		<path d="M687.6,83.6v17.3h6.5v5.7h-19.5v-5.7h6.5V83.6h-6.5v-5.7h19.5v5.7H687.6z"/>
		<path d="M710,77.5c9.1,0,14.6,6.4,14.6,14.7c0,8.4-5.5,14.8-14.6,14.8c-9.1,0-14.6-6.4-14.6-14.8C695.4,83.9,700.9,77.5,710,77.5z
			 M710,101.3c5.4,0,8.1-3.5,8.1-9.1c0-5.5-2.7-9-8.1-9s-8.1,3.5-8.1,9C701.9,97.8,704.6,101.3,710,101.3z"/>
		<path d="M728.3,77.9h12.8l8.7,27h1.6l-1.2-4.1v-23h6.5v28.7h-12.8l-8.7-27h-1.6l1.2,4.1v23h-6.5L728.3,77.9L728.3,77.9z"/>
	</g>
</g>
</svg>
